<svg xmlns="http://www.w3.org/2000/svg" viewBox="0 0 439.91 119.79"><defs><style>.cls-1{fill:#00427c;}</style></defs><g id="Layer_2" data-name="Layer 2"><g id="Layer_1-2" data-name="Layer 1"><path class="cls-1" d="M59.91,0C58,0,56.15.1,54.3.26V9.91h0V115.74h0v3.78c1.85.17,3.71.27,5.61.27A59.9,59.9,0,0,0,59.91,0ZM81.8,65.36a81.32,81.32,0,0,1-1.48,11.18h-14V65.36ZM66.29,54.17V43h14a79.82,79.82,0,0,1,1.53,11.18ZM93.58,65.36h14A47.84,47.84,0,0,1,105,76.54H92.08A82.89,82.89,0,0,0,93.58,65.36Zm0-11.19A81.33,81.33,0,0,0,92,43h12.9a47.68,47.68,0,0,1,2.69,11.18Zm5.3-22.36H88.76a73.56,73.56,0,0,0-7.62-15A48,48,0,0,1,98.87,31.81ZM77,31.81H66.29V12.3A72.53,72.53,0,0,1,77,31.81Zm-10.74,75.7V87.73H77.14a72.45,72.45,0,0,1-10.83,19.78Zm15-4.57A73.44,73.44,0,0,0,88.9,87.73H99.06A48.42,48.42,0,0,1,81.25,102.94Z"/><path class="cls-1" d="M252.87,112.58H221.42V13.47h31c20,0,29.18,13.69,29.18,25.72,0,9.48-3.92,15.79-11.88,20.6v.3C281.14,62.64,288,70.62,288,82.65,288,96.8,277.81,112.58,252.87,112.58Zm-3-83.76H239.62V54.68h9.61c8.15,0,14.15-5.25,14.15-13.54C263.38,34.08,258.57,28.82,249.85,28.82Zm3.45,41.05H239.62V97.25H251.2c12.18,0,18.19-5.43,18.19-14.44C269.39,75.13,263.52,69.87,253.3,69.87Z"/><path class="cls-1" d="M361,28.66H334.65v83.92H316.29V28.66H287.58V13.47H367Z"/><path class="cls-1" d="M193.73,112.58l-9.79-24.85H148.56l-9.18,24.85H121.17l38.34-99.14h13.64l39.71,99.14ZM170.25,50.09a100.24,100.24,0,0,1-3.76-12.32h-.16a77.76,77.76,0,0,1-3.6,12l-8.59,23.08h24.12Z"/><path class="cls-1" d="M420.78,112.58,411,87.73H375.61l-9.18,24.85H348.21l38.35-99.14H400.2l39.71,99.14ZM397.3,50.09a100.24,100.24,0,0,1-3.76-12.32h-.16a77.92,77.92,0,0,1-3.61,12l-8.59,23.08H405.3Z"/><path class="cls-1" d="M48.64,48.6V44.05L20,15.37a60.78,60.78,0,0,0-4.55,4.53L44.12,48.6Z"/><path class="cls-1" d="M48.64,70.86v4.55L20,104.09a58.94,58.94,0,0,1-4.55-4.53l28.71-28.7Z"/><path class="cls-1" d="M48.64,54.32H.27C.09,56.15,0,58,0,59.89s.09,3.74.27,5.58H48.64Z"/><path class="cls-1" d="M12.27,23.7A59.22,59.22,0,0,0,1.19,48.6h36Z"/><path class="cls-1" d="M48.64,37.1V1.15A59.46,59.46,0,0,0,23.75,12.22Z"/><path class="cls-1" d="M23.76,107.24a59.49,59.49,0,0,0,24.88,11.07V82.36Z"/><path class="cls-1" d="M37.16,70.86h-36a59.28,59.28,0,0,0,11.08,24.9Z"/></g></g></svg>