<svg xmlns="http://www.w3.org/2000/svg" viewBox="0 0 923.18 162.9"><defs><style>.cls-1{fill:#fff;stroke:#fff;stroke-linecap:round;stroke-linejoin:round;stroke-width:10.55px;}.cls-2{fill:#f9ba00;}.cls-3{fill:#00447a;}</style></defs><g id="Layer_2" data-name="Layer 2"><g id="Layer_1-2" data-name="Layer 1"><path class="cls-1" d="M439.28,80.25s79.61-34.94,227.41-41C785.73,34.28,917.9,63,917.9,63S787.28,1.48,653.54,6.36C541.08,10.47,439.28,80.25,439.28,80.25Z"/><path class="cls-1" d="M442.84,78.79s-111.62,77.66-201.13,78.8C113.63,159.24,5.28,82.07,5.28,82.07s133,49.26,239.71,41.87S442.84,78.79,442.84,78.79Z"/><path class="cls-2" d="M439.28,80.25s79.61-34.94,227.41-41C785.73,34.28,917.9,63,917.9,63S787.28,1.48,653.54,6.36C541.08,10.47,439.28,80.25,439.28,80.25Z"/><path class="cls-2" d="M442.46,78.79s-111.62,77.66-201.13,78.8C113.25,159.24,4.9,82.07,4.9,82.07s133,49.26,239.71,41.87S442.46,78.79,442.46,78.79Z"/><path class="cls-1" d="M81.14,103.33c4.36-.39,7.44-1.25,9.25-2.6S93.75,96.8,95,92.94l21.09-65.21c.45-1.51.86-3,1.22-4.4a15.11,15.11,0,0,0,.55-3.56c0-2.45-.79-4-2.35-4.64s-4.94-1.16-10.13-1.55V9.89h54.33v3.69q-9,.84-12.05,2.43c-2.07,1.06-3.79,3.74-5.19,8l-9.37,28.89h40.94l8.11-25.2c.5-1.68.92-3.18,1.26-4.52a14.81,14.81,0,0,0,.5-3.44c0-2.56-1.11-4.24-3.35-5q-2.17-.75-9.12-1.17V9.89h51v3.69q-6,.67-8.29,2c-2.41,1.45-4.27,4.27-5.62,8.45l-21,65.23-1.42,5q-.42,1.59-.51,2a5.72,5.72,0,0,0-.07,1q0,3.69,3.76,5c1.5.51,4.49.84,9,1V107H143.85v-3.68c6-.5,10-1.29,12.1-2.34s3.83-3.75,5.23-8l10.88-33.65H131.21l-9.72,30q-1,3.35-1.34,4.77a15.39,15.39,0,0,0-.33,3.43q0,3.51,2.26,4.44c1.51.61,4.89,1.09,10.13,1.42V107H81.14Z"/><path class="cls-1" d="M220.18,57q15.57-17.25,31.65-17.24,6.53,0,9.63,3.26,1.83,1.93,3.26,6.61l2.93-7.7,19.09-1.09-12.14,34q-2.6,7.29-3.68,11.06-2.26,7.36-2.27,10.46a2.06,2.06,0,0,0,.67,1.76,2.45,2.45,0,0,0,1.51.5,5.22,5.22,0,0,0,2.94-1,22.32,22.32,0,0,0,3.17-2.72c.56-.5,1.51-1.48,2.85-2.93s2.45-2.68,3.35-3.69l3.6,2.18a81,81,0,0,1-13.27,13.6Q267.15,109,260.71,109a13.3,13.3,0,0,1-7.62-2.52,8.25,8.25,0,0,1-3.69-7.28c0-1.23.72-4.24,2.18-9,.22-.17,0,.16-.63,1s-1.63,2.09-3,3.76a45.06,45.06,0,0,1-10.68,9.84,24.38,24.38,0,0,1-13.69,4.06A20.94,20.94,0,0,1,211,104.52q-5.86-4.32-5.86-14.7Q205.11,73.74,220.18,57Zm39.69-7.87q-1.61-3.26-6-3.26-9.28,0-19.09,18.59Q226.21,81,226.21,89.82a9.43,9.43,0,0,0,2,6,6.55,6.55,0,0,0,5.4,2.59q8.53,0,19.34-19.16,7.69-16.17,7.71-25.54A10.79,10.79,0,0,0,259.87,49.13Z"/><path class="cls-1" d="M308.36,119.43q5.77-5.94,5.78-11.38,0-4.93-3.27-19.93c-1.39-6.36-2.88-12.61-4.43-18.75q-4.29-16.08-6.33-19.05c-1.36-2-4-3-8-3V43.41q8-.57,16.74-2t7.88-1.22l1.17-.16q2,5.1,6.15,20t6.48,27l.68,3.43,3.18-4.69a106.94,106.94,0,0,0,7.83-13.64q3.88-7.95,3.89-10.72a4.42,4.42,0,0,0-.84-2.56,9,9,0,0,0-2.76-2.38l-1.34-.75a14.17,14.17,0,0,1-2.68-2.27,7.75,7.75,0,0,1-1.92-5,7.92,7.92,0,0,1,2.8-5.77,9.8,9.8,0,0,1,7.07-2.68,12.65,12.65,0,0,1,7.21,2.34c2.28,1.57,3.43,4.11,3.43,7.62q0,8.63-9.63,26a240.09,240.09,0,0,1-16.75,25.79q-13.4,18-24.23,26.63t-22,8.62a11.66,11.66,0,0,1-7.91-2.72,8,8,0,0,1-3.14-6.15,6.73,6.73,0,0,1,2.92-5.74,11,11,0,0,1,6.62-2.14,19.31,19.31,0,0,1,8.71,2.52q4.85,2.5,6.53,2.51Q302.58,125.38,308.36,119.43Z"/><path class="cls-1" d="M359.93,84.72l4.53.25Q365.71,95.7,370.9,100t10.21,4.36a10,10,0,0,0,7-2.35,7.24,7.24,0,0,0,2.59-5.52,11.87,11.87,0,0,0-2.3-6.41,51.28,51.28,0,0,0-5.4-6.74L376.6,76.6a35.44,35.44,0,0,1-7.12-8.88,20.29,20.29,0,0,1-2.93-10.21q0-7.29,6.45-12.52t17.49-5.23A31.2,31.2,0,0,1,400,41.39,28.23,28.23,0,0,0,406.65,43a4.81,4.81,0,0,0,3-.8,7.36,7.36,0,0,0,1.84-2.3h4.94L412.51,62.2l-4.61-.42q-1.57-9.21-5.9-13.23t-9.08-4q-4.77,0-7,2.39a7.62,7.62,0,0,0-2.22,5.31,8.85,8.85,0,0,0,1.64,5,65.28,65.28,0,0,0,6.32,7.5L400,73.83A31.9,31.9,0,0,1,405,81a18.3,18.3,0,0,1,2.18,8.42,16.63,16.63,0,0,1-7.46,14.15q-7.45,5.34-18.16,5.35a34.73,34.73,0,0,1-9.68-1.5,35.48,35.48,0,0,0-6.23-1.51,4.75,4.75,0,0,0-3.18.92,7.57,7.57,0,0,0-1.76,2.09h-4.52Z"/><path class="cls-1" d="M456.52,103.33q7.86,0,10.79-1.25,4.69-2,7-9.14L499.8,15q-12.82-.08-21.93,5.2a41.85,41.85,0,0,0-15.16,15.56l-4.44-1,6.61-24.87h94.45l-6.2,27.88-4.52-.33q-.42-14.14-9.37-19.34-4.86-2.85-14.41-3.1l-24,74.27-1.43,5a13.37,13.37,0,0,0-.33,1.63,7.92,7.92,0,0,0-.09,1.29c0,2.52.92,4.09,2.77,4.74s5.69,1.1,11.55,1.38V107H456.52Z"/><path class="cls-1" d="M535.72,107Q543.27,86.2,548,71.21q5.18-16.06,5.18-19.09c0-1.84-.69-3-2.08-3.51a23.86,23.86,0,0,0-7.2-.76V44q10.71-.59,18.08-1.5,4.77-.59,16.25-2.43l-9.55,25.78.75.17Q576.83,54,581.27,48.85q7.79-8.79,15-8.78,5,0,7.41,2.84a9.62,9.62,0,0,1,2.39,6.36,11.68,11.68,0,0,1-2.64,7.5,8.83,8.83,0,0,1-7.32,3.31,10.4,10.4,0,0,1-3.9-.72,7.81,7.81,0,0,1-3.05-2.13l-1.59-1.68a6.44,6.44,0,0,0-.89-.71,2.26,2.26,0,0,0-1.21-.29q-3.26,0-8.53,7.54A99.31,99.31,0,0,0,568,77.41c-1.68,3.63-3.75,8.74-6.19,15.37s-4.28,11.33-5.45,14.18Z"/><path class="cls-1" d="M610.9,57q15.57-17.25,31.65-17.24c4.34,0,7.56,1.08,9.62,3.26Q654,45,655.44,49.63l2.93-7.7,19.09-1.09-12.14,34c-1.73,4.86-3,8.55-3.69,11.06q-2.25,7.36-2.26,10.46a2.09,2.09,0,0,0,.67,1.76,2.43,2.43,0,0,0,1.51.5,5.21,5.21,0,0,0,2.93-1,22.33,22.33,0,0,0,3.18-2.72c.56-.5,1.5-1.48,2.85-2.93s2.45-2.68,3.34-3.69l3.61,2.18a81.41,81.41,0,0,1-13.27,13.6c-4.21,3.27-8.48,4.91-12.77,4.91a13.3,13.3,0,0,1-7.62-2.52,8.25,8.25,0,0,1-3.68-7.28c0-1.23.72-4.24,2.18-9,.22-.17,0,.16-.64,1s-1.63,2.09-3,3.76A45,45,0,0,1,628,104.77a24.4,24.4,0,0,1-13.69,4.06,20.92,20.92,0,0,1-12.64-4.31q-5.87-4.32-5.86-14.7Q595.83,73.74,610.9,57Zm39.68-7.87q-1.59-3.26-6-3.26-9.28,0-19.08,18.59Q616.92,81,616.93,89.82a9.42,9.42,0,0,0,2,6,6.58,6.58,0,0,0,5.4,2.59q8.55,0,19.34-19.16,7.71-16.17,7.71-25.54A10.79,10.79,0,0,0,650.58,49.13Z"/><path class="cls-1" d="M702,108.83H697.6L698.19,89q.24-8.78-.13-16.15a114.2,114.2,0,0,0-1.63-14.32Q695,50.89,693,49.26t-7.31-1.63V43.77l5.52-.75q6.1-.84,10-1.42t11.26-1.84q2.93,7.79,4.18,25.19.68,8.73.93,23.2a164.54,164.54,0,0,0,12.14-12.06q9.54-10.36,9.54-14.9c0-1.68-1.26-3.67-3.77-6s-3.76-4.64-3.76-7a7.44,7.44,0,0,1,2.8-6.06,10.14,10.14,0,0,1,6.65-2.31,11.11,11.11,0,0,1,7.38,2.68c2.12,1.79,3.18,4.35,3.18,7.7q0,9.39-14.56,26.21a201.25,201.25,0,0,1-25.71,24.69Z"/><path class="cls-1" d="M769.48,55.08q15.4-15.33,33.82-15.32,8,0,13.19,3.31a10.52,10.52,0,0,1,5.23,9.41q0,9.3-12.22,17.5T777.77,80.45c-.33,1.51-.59,2.89-.75,4.14a24.32,24.32,0,0,0-.26,3.14,14,14,0,0,0,1.51,7q2.68,4.69,10.3,4.69c4.13,0,8.22-1.78,12.31-5.36a51.66,51.66,0,0,0,7-7.86l5,2.51q-6.45,9.12-12.14,13.39a34.33,34.33,0,0,1-21.18,6.78,29.29,29.29,0,0,1-17-5.56q-8-5.56-8-17Q754.58,69.91,769.48,55.08Zm35.58-8.83c-.72-1.15-2-1.72-3.93-1.72q-6,0-11.85,8.2t-10.34,23q14.82-2.83,21-10.92c4.12-5.4,6.2-10.18,6.2-14.37A7.68,7.68,0,0,0,805.06,46.25Z"/><path class="cls-1" d="M826.69,92.6q.49-1.92,1.68-5.61l20.26-62.54c.5-1.62.86-2.93,1.09-3.93a12.18,12.18,0,0,0,.33-2.52q0-3.27-2.52-4a30.27,30.27,0,0,0-8.2-.55V9.63Q852.05,8.54,856.54,8c3-.36,9.13-1.27,18.46-2.72L850.22,81.22Q848.38,87,848,88.58a31.23,31.23,0,0,0-1.51,6.87,2.08,2.08,0,0,0,.92,2,3.59,3.59,0,0,0,1.68.5q2.51,0,6.4-3.72a58.87,58.87,0,0,0,6.91-7.92l3.76,2q-7.53,9.8-12.22,13.64-7.78,6.36-16.58,6.37a13,13,0,0,1-8.24-2.72,8.62,8.62,0,0,1-3.48-7.16A24.32,24.32,0,0,1,826.69,92.6Z"/><path class="cls-3" d="M81.14,103.33c4.36-.39,7.44-1.25,9.25-2.6S93.75,96.8,95,92.94l21.09-65.21c.45-1.51.86-3,1.22-4.4a15.11,15.11,0,0,0,.55-3.56c0-2.45-.79-4-2.35-4.64s-4.94-1.16-10.13-1.55V9.89h54.33v3.69q-9,.84-12.05,2.43c-2.07,1.06-3.79,3.74-5.19,8l-9.37,28.89h40.94l8.11-25.2c.5-1.68.92-3.18,1.26-4.52a14.81,14.81,0,0,0,.5-3.44c0-2.56-1.11-4.24-3.35-5q-2.17-.75-9.12-1.17V9.89h51v3.69q-6,.67-8.29,2c-2.41,1.45-4.27,4.27-5.62,8.45l-21,65.23-1.42,5q-.42,1.59-.51,2a5.72,5.72,0,0,0-.07,1q0,3.69,3.76,5c1.5.51,4.49.84,9,1V107H143.85v-3.68c6-.5,10-1.29,12.1-2.34s3.83-3.75,5.23-8l10.88-33.65H131.21l-9.72,30q-1,3.35-1.34,4.77a15.39,15.39,0,0,0-.33,3.43q0,3.51,2.26,4.44c1.51.61,4.89,1.09,10.13,1.42V107H81.14Z"/><path class="cls-3" d="M220.18,57q15.57-17.25,31.65-17.24,6.53,0,9.63,3.26,1.83,1.93,3.26,6.61l2.93-7.7,19.09-1.09-12.14,34q-2.6,7.29-3.68,11.06-2.26,7.36-2.27,10.46a2.06,2.06,0,0,0,.67,1.76,2.45,2.45,0,0,0,1.51.5,5.22,5.22,0,0,0,2.94-1,22.32,22.32,0,0,0,3.17-2.72c.56-.5,1.51-1.48,2.85-2.93s2.45-2.68,3.35-3.69l3.6,2.18a81,81,0,0,1-13.27,13.6Q267.15,109,260.71,109a13.3,13.3,0,0,1-7.62-2.52,8.25,8.25,0,0,1-3.69-7.28c0-1.23.72-4.24,2.18-9,.22-.17,0,.16-.63,1s-1.63,2.09-3,3.76a45.06,45.06,0,0,1-10.68,9.84,24.38,24.38,0,0,1-13.69,4.06A20.94,20.94,0,0,1,211,104.52q-5.86-4.32-5.86-14.7Q205.11,73.74,220.18,57Zm39.69-7.87q-1.61-3.26-6-3.26-9.28,0-19.09,18.59Q226.21,81,226.21,89.82a9.43,9.43,0,0,0,2,6,6.55,6.55,0,0,0,5.4,2.59q8.53,0,19.34-19.16,7.69-16.17,7.71-25.54A10.79,10.79,0,0,0,259.87,49.13Z"/><path class="cls-3" d="M308.36,119.43q5.77-5.94,5.78-11.38,0-4.93-3.27-19.93c-1.39-6.36-2.88-12.61-4.43-18.75q-4.29-16.08-6.33-19.05c-1.36-2-4-3-8-3V43.41q8-.57,16.74-2t7.88-1.22l1.17-.16q2,5.1,6.15,20t6.48,27l.68,3.43,3.18-4.69a106.94,106.94,0,0,0,7.83-13.64q3.88-7.95,3.89-10.72a4.42,4.42,0,0,0-.84-2.56,9,9,0,0,0-2.76-2.38l-1.34-.75a14.17,14.17,0,0,1-2.68-2.27,7.75,7.75,0,0,1-1.92-5,7.92,7.92,0,0,1,2.8-5.77,9.8,9.8,0,0,1,7.07-2.68,12.65,12.65,0,0,1,7.21,2.34c2.28,1.57,3.43,4.11,3.43,7.62q0,8.63-9.63,26a240.09,240.09,0,0,1-16.75,25.79q-13.4,18-24.23,26.63t-22,8.62a11.66,11.66,0,0,1-7.91-2.72,8,8,0,0,1-3.14-6.15,6.73,6.73,0,0,1,2.92-5.74,11,11,0,0,1,6.62-2.14,19.31,19.31,0,0,1,8.71,2.52q4.85,2.5,6.53,2.51Q302.58,125.38,308.36,119.43Z"/><path class="cls-3" d="M359.93,84.72l4.53.25Q365.71,95.7,370.9,100t10.21,4.36a10,10,0,0,0,7-2.35,7.24,7.24,0,0,0,2.59-5.52,11.87,11.87,0,0,0-2.3-6.41,51.28,51.28,0,0,0-5.4-6.74L376.6,76.6a35.44,35.44,0,0,1-7.12-8.88,20.29,20.29,0,0,1-2.93-10.21q0-7.29,6.45-12.52t17.49-5.23A31.2,31.2,0,0,1,400,41.39,28.23,28.23,0,0,0,406.65,43a4.81,4.81,0,0,0,3-.8,7.36,7.36,0,0,0,1.84-2.3h4.94L412.51,62.2l-4.61-.42q-1.57-9.21-5.9-13.23t-9.08-4q-4.77,0-7,2.39a7.62,7.62,0,0,0-2.22,5.31,8.85,8.85,0,0,0,1.64,5,65.28,65.28,0,0,0,6.32,7.5L400,73.83A31.9,31.9,0,0,1,405,81a18.3,18.3,0,0,1,2.18,8.42,16.63,16.63,0,0,1-7.46,14.15q-7.45,5.34-18.16,5.35a34.73,34.73,0,0,1-9.68-1.5,35.48,35.48,0,0,0-6.23-1.51,4.75,4.75,0,0,0-3.18.92,7.57,7.57,0,0,0-1.76,2.09h-4.52Z"/><path class="cls-3" d="M456.52,103.33q7.86,0,10.79-1.25,4.69-2,7-9.14L499.8,15q-12.82-.08-21.93,5.2a41.85,41.85,0,0,0-15.16,15.56l-4.44-1,6.61-24.87h94.45l-6.2,27.88-4.64.42c-.29-9.43-3.29-16.63-9.25-20.09q-4.86-2.85-14.41-3.1l-24,74.27-1.43,5a13.37,13.37,0,0,0-.33,1.63,7.92,7.92,0,0,0-.09,1.29c0,2.52.92,4.09,2.77,4.74s5.69,1.1,11.55,1.38V107H456.52Z"/><path class="cls-3" d="M535.72,107Q543.27,86.2,548,71.21q5.18-16.06,5.18-19.09c0-1.84-.69-3-2.08-3.51a23.86,23.86,0,0,0-7.2-.76V44q10.71-.59,18.08-1.5,4.77-.59,16.25-2.43l-9.55,25.78.75.17Q576.83,54,581.27,48.85q7.79-8.79,15-8.78,5,0,7.41,2.84a9.62,9.62,0,0,1,2.39,6.36,11.68,11.68,0,0,1-2.64,7.5,8.83,8.83,0,0,1-7.32,3.31,10.4,10.4,0,0,1-3.9-.72,7.81,7.81,0,0,1-3.05-2.13l-1.59-1.68a6.44,6.44,0,0,0-.89-.71,2.26,2.26,0,0,0-1.21-.29q-3.26,0-8.53,7.54A99.31,99.31,0,0,0,568,77.41c-1.68,3.63-3.75,8.74-6.19,15.37s-4.28,11.33-5.45,14.18Z"/><path class="cls-3" d="M610.9,57q15.57-17.25,31.65-17.24c4.34,0,7.56,1.08,9.62,3.26Q654,45,655.44,49.63l2.93-7.7,19.09-1.09-12.14,34c-1.73,4.86-3,8.55-3.69,11.06q-2.25,7.36-2.26,10.46a2.09,2.09,0,0,0,.67,1.76,2.43,2.43,0,0,0,1.51.5,5.21,5.21,0,0,0,2.93-1,22.33,22.33,0,0,0,3.18-2.72c.56-.5,1.5-1.48,2.85-2.93s2.45-2.68,3.34-3.69l3.61,2.18a81.41,81.41,0,0,1-13.27,13.6c-4.21,3.27-8.48,4.91-12.77,4.91a13.3,13.3,0,0,1-7.62-2.52,8.25,8.25,0,0,1-3.68-7.28c0-1.23.72-4.24,2.18-9,.22-.17,0,.16-.64,1s-1.63,2.09-3,3.76A45,45,0,0,1,628,104.77a24.4,24.4,0,0,1-13.69,4.06,20.92,20.92,0,0,1-12.64-4.31q-5.87-4.32-5.86-14.7Q595.83,73.74,610.9,57Zm39.68-7.87q-1.59-3.26-6-3.26-9.28,0-19.08,18.59Q616.92,81,616.93,89.82a9.42,9.42,0,0,0,2,6,6.58,6.58,0,0,0,5.4,2.59q8.55,0,19.34-19.16,7.71-16.17,7.71-25.54A10.79,10.79,0,0,0,650.58,49.13Z"/><path class="cls-3" d="M702,108.83H697.6L698.19,89q.24-8.78-.13-16.15a114.2,114.2,0,0,0-1.63-14.32Q695,50.89,693,49.26t-7.31-1.63V43.77l5.52-.75q6.1-.84,10-1.42t11.26-1.84q2.93,7.79,4.18,25.19.68,8.73.93,23.2a164.54,164.54,0,0,0,12.14-12.06q9.54-10.36,9.54-14.9c0-1.68-1.26-3.67-3.77-6s-3.76-4.64-3.76-7a7.44,7.44,0,0,1,2.8-6.06,10.14,10.14,0,0,1,6.65-2.31,11.11,11.11,0,0,1,7.38,2.68c2.12,1.79,3.18,4.35,3.18,7.7q0,9.39-14.56,26.21a201.25,201.25,0,0,1-25.71,24.69Z"/><path class="cls-3" d="M769.48,55.08q15.4-15.33,33.82-15.32,8,0,13.19,3.31a10.52,10.52,0,0,1,5.23,9.41q0,9.3-12.22,17.5T777.77,80.45c-.33,1.51-.59,2.89-.75,4.14a24.32,24.32,0,0,0-.26,3.14,14,14,0,0,0,1.51,7q2.68,4.69,10.3,4.69c4.13,0,8.22-1.78,12.31-5.36a51.66,51.66,0,0,0,7-7.86l5,2.51q-6.45,9.12-12.14,13.39a34.33,34.33,0,0,1-21.18,6.78,29.29,29.29,0,0,1-17-5.56q-8-5.56-8-17Q754.58,69.91,769.48,55.08Zm35.58-8.83c-.72-1.15-2-1.72-3.93-1.72q-6,0-11.85,8.2t-10.34,23q14.82-2.83,21-10.92c4.12-5.4,6.2-10.18,6.2-14.37A7.68,7.68,0,0,0,805.06,46.25Z"/><path class="cls-3" d="M826.69,92.6q.49-1.92,1.68-5.61l20.26-62.54c.5-1.62.86-2.93,1.09-3.93a12.18,12.18,0,0,0,.33-2.52q0-3.27-2.52-4a30.27,30.27,0,0,0-8.2-.55V9.63Q852.05,8.54,856.54,8c3-.36,9.13-1.27,18.46-2.72L850.22,81.22Q848.38,87,848,88.58a31.23,31.23,0,0,0-1.51,6.87,2.08,2.08,0,0,0,.92,2,3.59,3.59,0,0,0,1.68.5q2.51,0,6.4-3.72a58.87,58.87,0,0,0,6.91-7.92l3.76,2q-7.53,9.8-12.22,13.64-7.78,6.36-16.58,6.37a13,13,0,0,1-8.24-2.72,8.62,8.62,0,0,1-3.48-7.16A24.32,24.32,0,0,1,826.69,92.6Z"/></g></g></svg>