<svg xmlns="http://www.w3.org/2000/svg" xmlns:xlink="http://www.w3.org/1999/xlink" viewBox="0 0 800 800"><defs><style>.cls-1{fill:url(#radial-gradient);}.cls-2{fill:#fff;}</style><radialGradient id="radial-gradient" cx="411.02" cy="411.02" r="411.02" gradientTransform="scale(0.97)" gradientUnits="userSpaceOnUse"><stop offset="0" stop-color="#009fe3"/><stop offset="1" stop-color="#004c7d"/></radialGradient></defs><g id="Layer_2" data-name="Layer 2"><g id="Layer_1-2" data-name="Layer 1"><circle class="cls-1" cx="400" cy="400" r="400"/><path class="cls-2" d="M181.42,276.23H163.11v79.25h-32.8V158.18h51.11c39.07,0,48.36,24.59,48.36,59S220.49,276.23,181.42,276.23Zm-2.74-91H163.11V248.9h15.57c16.4,0,18.86-10.38,18.86-32C197.54,195.61,195.08,185.23,178.68,185.23Z"/><path class="cls-2" d="M282.8,239.61h38.25v27.6H282.8v59h54.1v29.24H250.28V158.18h84.44v28.69H282.8Z"/><path class="cls-2" d="M383.63,158.18h38.53l34.43,197.3H425.16l-5.74-41H386.36l-5.74,41H349.19Zm7.1,128.16h24.32L403,204.9Z"/><path class="cls-2" d="M534.74,231.69V201.9c0-10.93-4.37-18-15.58-18-12.3,0-17.21,7.11-17.21,18.86V310.93c0,12,4.91,18.86,17.21,18.86,11.21,0,15.58-7.11,15.58-18v-32h31.7v31.15c0,29.24-18,47.83-47.55,47.83-29.79,0-49.74-19.13-49.74-48.65V203.54c0-29.51,20-48.64,49.74-48.64,29.51,0,47.55,18.58,47.55,47.82v29Z"/><path class="cls-2" d="M620.54,239.61H658.8v27.6H620.54v59h54.11v29.24H588V158.18h84.44v28.69H620.54Z"/><path class="cls-2" d="M200.32,489c0,22.17-14.37,36.54-37.15,36.54S126,511.17,126,489V409c0-22.17,14.37-36.53,37.16-36.53s37.15,14.36,37.15,36.53Zm-24.63-80.66c0-7.8-2.67-14.37-12.52-14.37s-12.52,6.57-12.52,14.37v81.28c0,7.8,2.66,14.37,12.52,14.37s12.52-6.57,12.52-14.37Z"/><path class="cls-2" d="M241.37,436.66h29.76V457.8H241.37v65.28H216.74V374.88h64.45v21.35H241.37Z"/><path class="cls-2" d="M417.28,523.08V411.21L396.14,523.08h-15L360.63,411.42V523.08H339.07V374.88h32.85l17.44,92.78L407,374.88h32.43v148.2Z"/><path class="cls-2" d="M484.4,523.08H460V374.88H484.4Z"/><path class="cls-2" d="M560.34,523.08l-33-91.14v91.14H505.13V374.88H527.3l31,87.44V374.88h22.17v148.2Z"/><path class="cls-2" d="M674.68,483.05c0,23.2-9.86,40-38.8,40h-35.1V374.88h35.1c28.94,0,38.8,16.83,38.8,40Zm-49.47,19.09h9.85c11.91,0,15-5.75,15-17.45V413.26c0-11.7-3.07-17.44-15-17.44h-9.85Z"/><path class="cls-2" d="M177.29,576.61H160.44V563.24c0-5.81-2.33-9.58-8.28-9.58s-8.72,3.77-8.72,10v57.23c0,6.4,2.76,10,8.86,10,6.39,0,9.3-4.07,9.3-11V605.52H151.28V592h26.88v52.87h-7.85l-2.76-7.41c-5.08,7.12-11.18,9.16-17.86,9.16-15.84,0-23.68-11.48-23.68-26.44V564.12c0-15.69,10.46-25.86,26.15-25.86,15.54,0,25.13,9.88,25.13,25.42Z"/><path class="cls-2" d="M244.83,620.77c0,15.69-10.16,25.86-26.29,25.86s-26.29-10.17-26.29-25.86V540h17.43v81.21c0,5.51,1.89,10.16,8.86,10.16s8.86-4.65,8.86-10.16V540h17.43Z"/><path class="cls-2" d="M271,540h20.48l18.31,104.88H293.06L290,623.09H272.43l-3.05,21.79h-16.7Zm3.78,68.13h12.93l-6.4-43.29Z"/><path class="cls-2" d="M354.8,644.88,342.88,601.3h-6.24v43.58H319.21V540h27.16c20.34,0,24.41,13.51,24.41,31.38,0,17.29-3.78,23.24-12.64,27.45l13.65,46Zm-11.33-57.52c7.84,0,10.16-3.63,10.16-16.42s-2.32-16.41-10.16-16.41h-6.83v32.83Z"/><path class="cls-2" d="M396.34,540h20.48l18.31,104.88H418.42l-3.05-21.79H397.79l-3.05,21.79H378Zm3.78,68.13h12.93l-6.4-43.29Z"/><path class="cls-2" d="M483.79,644.88,460.4,580.39v64.49H444.71V540H460.4l21.94,61.88V540H498V644.88Z"/><path class="cls-2" d="M542.33,555.55v89.33H525V555.55H506.59V540h53.9v15.55Z"/><path class="cls-2" d="M586.49,583.29h20.33V598H586.49v31.38h28.76v15.54h-46V540h44.89v15.26h-27.6Z"/><path class="cls-2" d="M643.43,583.29h20.34V598H643.43v31.38h28.76v15.54H626.14V540H671v15.26h-27.6Z"/></g></g></svg>